<svg xmlns="http://www.w3.org/2000/svg"  viewBox="0 0 16 16" width="64px" height="64px"><path d="M 7.5 0.00390625 C 7.238281 0.00390625 6.976563 0.101563 6.78125 0.296875 L 0.296875 6.78125 C -0.0976563 7.175781 -0.0976563 7.824219 0.296875 8.21875 L 6.78125 14.703125 C 7.175781 15.09375 7.824219 15.09375 8.21875 14.703125 L 14.703125 8.21875 C 15.097656 7.824219 15.097656 7.175781 14.703125 6.78125 L 8.21875 0.296875 C 8.019531 0.101563 7.761719 0.00390625 7.5 0.00390625 Z M 7.488281 1.003906 C 7.496094 0.996094 7.5 0.996094 7.507813 1.003906 L 13.996094 7.492188 C 14.003906 7.5 14.003906 7.503906 13.996094 7.511719 L 7.515625 13.996094 C 7.503906 14.003906 7.5 14.003906 7.488281 13.996094 L 1.003906 7.511719 C 0.996094 7.503906 0.996094 7.5 1.003906 7.492188 L 5.390625 3.101563 L 6.4375 4.140625 C 6.394531 4.257813 6.375 4.378906 6.375 4.5 C 6.375 4.925781 6.617188 5.316406 7 5.507813 L 7 9.867188 C 6.617188 10.058594 6.375 10.449219 6.375 10.875 C 6.375 11.496094 6.878906 12 7.5 12 C 8.121094 12 8.625 11.496094 8.625 10.875 C 8.625 10.449219 8.382813 10.058594 8 9.867188 L 8 5.707031 L 9.5625 7.265625 C 9.519531 7.382813 9.5 7.503906 9.5 7.625 C 9.5 8.246094 10.003906 8.75 10.625 8.75 C 11.246094 8.75 11.75 8.246094 11.75 7.625 C 11.75 7.003906 11.246094 6.5 10.625 6.5 C 10.503906 6.5 10.382813 6.519531 10.265625 6.5625 L 8.5625 4.859375 C 8.605469 4.742188 8.625 4.621094 8.625 4.5 C 8.625 3.878906 8.121094 3.375 7.5 3.375 C 7.378906 3.375 7.257813 3.394531 7.140625 3.4375 L 6.101563 2.390625 Z"/></svg>