<?xml version="1.0" encoding="UTF-8"?> <!-- Generator: Adobe Illustrator 24.0.1, SVG Export Plug-In . SVG Version: 6.00 Build 0) --> <svg xmlns="http://www.w3.org/2000/svg" xmlns:xlink="http://www.w3.org/1999/xlink" id="Layer_1" x="0px" y="0px" viewBox="0 0 180 50" style="enable-background:new 0 0 180 50;" xml:space="preserve"> <style type="text/css"> .st0{fill:#248BCB;} .st1{fill:#6CAD44;} .st2{fill:#3C3E3F;} .st3{fill:#393B3D;} </style> <path class="st0" d="M13.5,40.7h9.8v-9.8h9.8v-11h-9.4V9.7H13.5V2.8C5.5,7,0,15.3,0,25s5.5,18.1,13.5,22.3V40.7z"></path> <path class="st1" d="M25,0.1c-0.5,0-0.9,0-1.4,0.1v9.6h9.5V20h10.7v11H33.1v9.8h-9.8V50c0.6,0,1.1,0,1.7,0c13.8,0,25-11.2,25-25 C49.9,11.2,38.8,0.1,25,0.1z"></path> <path class="st2" d="M62,7.2h2.7V23h14v2.4H62V7.2L62,7.2z"></path> <path class="st2" d="M92.8,25.7c-3.8,0-6.4-0.3-7.9-0.7c-1.5-0.5-2.4-1.4-2.9-2.8c-0.3-0.9-0.4-2.9-0.4-5.8c0-3,0.1-4.9,0.4-5.8 c0.4-1.4,1.4-2.3,2.9-2.8S89.1,7,92.8,7c3.8,0,6.4,0.3,7.9,0.7c1.5,0.5,2.4,1.4,2.9,2.8c0.3,0.9,0.4,2.9,0.4,5.9s-0.1,4.9-0.4,5.8 c-0.4,1.4-1.4,2.3-2.9,2.8C99.2,25.5,96.6,25.7,92.8,25.7z M92.8,23.3c4.2,0,6.7-0.3,7.4-0.9c0.8-0.6,1.1-2.6,1.1-6s-0.4-5.4-1.1-6 c-0.8-0.6-3.2-0.9-7.4-0.9s-6.7,0.3-7.4,0.9c-0.8,0.6-1.1,2.6-1.1,6s0.4,5.3,1.1,6C86.1,23,88.5,23.3,92.8,23.3z"></path> <path class="st2" d="M109.9,16.4c0,3.4,0.4,5.4,1.1,6c0.7,0.7,3,1,6.9,1c3.8,0,6.1-0.2,6.9-0.7c0.8-0.4,1.2-1.8,1.2-4.1h-8.8v-2.4 h11.5v2.4c0,3.1-0.7,5.1-1.9,5.9c-1.3,0.8-4.2,1.2-8.9,1.2c-4.7,0-7.7-0.5-8.9-1.6c-1.2-1.1-1.8-3.7-1.8-7.8s0.6-6.7,1.8-7.8 c1.2-1,4.2-1.6,9-1.6c4.7,0,7.7,0.3,8.9,1c1.2,0.7,1.9,2.4,1.9,5.2H126c0-1.8-0.4-2.8-1.3-3.2s-3.1-0.5-6.8-0.5c-4,0-6.3,0.3-7,0.9 C110.2,11,109.9,13,109.9,16.4z"></path> <path class="st2" d="M144.9,25.7c-3.8,0-6.4-0.3-7.9-0.7c-1.5-0.5-2.4-1.4-2.9-2.8c-0.3-0.9-0.4-2.9-0.4-5.8c0-3,0.1-4.9,0.4-5.8 c0.4-1.4,1.4-2.3,2.9-2.8s4.2-0.8,7.9-0.8c3.8,0,6.4,0.3,7.9,0.7c1.5,0.5,2.4,1.4,2.9,2.8c0.3,0.9,0.4,2.9,0.4,5.9s-0.1,4.9-0.4,5.8 c-0.4,1.4-1.4,2.3-2.9,2.8C151.3,25.5,148.7,25.7,144.9,25.7z M144.9,23.3c4.2,0,6.7-0.3,7.4-0.9c0.8-0.6,1.1-2.6,1.1-6 s-0.4-5.4-1.1-6c-0.8-0.6-3.2-0.9-7.4-0.9s-6.7,0.3-7.4,0.9c-0.8,0.6-1.1,2.6-1.1,6s0.4,5.3,1.1,6C138.2,23,140.6,23.3,144.9,23.3z"></path> <path class="st2" d="M169.9,15.3c4.2,0,6.9,0.3,8,0.8c1.4,0.6,2.1,2.1,2.1,4.5c0,2.2-0.8,3.7-2.5,4.4c-1.4,0.5-4.1,0.9-8.2,0.9 c-4.5,0-7.3-0.5-8.6-1.5c-1-0.8-1.5-2.4-1.5-4.9h2.7c0,1.7,0.4,2.8,1.1,3.3c0.8,0.4,2.8,0.7,6.2,0.7c3.3,0,5.5-0.2,6.5-0.5 s1.5-1.1,1.5-2.3c0-1.2-0.4-2-1.1-2.3c-0.8-0.3-2.8-0.4-6.2-0.4c-4.2,0-7-0.5-8.5-1.5c-1.1-0.8-1.6-2.1-1.6-4.1c0-2.2,0.7-3.5,2-4.2 s4-0.9,8.1-0.9s6.7,0.5,8,1.5c1,0.8,1.5,2.3,1.5,4.6h-2.7c0-1.6-0.4-2.6-1.2-3s-2.7-0.6-5.7-0.6c-2.6,0-4.1,0.1-4.7,0.1 c-1.8,0.2-2.7,1.1-2.7,2.6c0,1.2,0.5,2.1,1.4,2.6C165,15,166.9,15.3,169.9,15.3z"></path> <path d="M63.2,41.8h-0.9v-6.3h0.9V41.8z"></path> <path d="M69.2,35.5h6.6v0.9H73v5.4h-1v-5.4h-2.8V35.5L69.2,35.5z"></path> <path d="M94.5,35.5l3.3,6.3h-1L96,40.4h-4.5l-0.7,1.4h-1l3.3-6.3C93.1,35.5,94.5,35.5,94.5,35.5z M95.6,39.6l-1.7-3.3h-0.2L92,39.6 H95.6z"></path> <path d="M104.2,38.7c0,1.1,0.1,1.8,0.4,2.1c0.2,0.2,1,0.3,2.2,0.3c1.1,0,1.9-0.1,2.1-0.2c0.3-0.2,0.4-0.5,0.4-1.2h0.9 c0,1-0.2,1.6-0.6,1.9c-0.4,0.3-1.4,0.4-2.9,0.4s-2.5-0.2-2.9-0.5c-0.4-0.4-0.6-1.2-0.6-2.7c0-1.4,0.2-2.3,0.6-2.7s1.4-0.5,2.9-0.5 s2.5,0.1,2.9,0.4c0.4,0.3,0.6,0.9,0.6,1.9h-0.9c0-0.7-0.2-1.1-0.4-1.2c-0.3-0.2-1-0.2-2.2-0.2s-2,0.1-2.2,0.3 C104.3,36.8,104.2,37.5,104.2,38.7z"></path> <path d="M120.7,35.5l3.3,6.3h-1l-0.8-1.4h-4.5l-0.7,1.4h-1l3.3-6.3H120.7z M121.8,39.6l-1.7-3.3h-0.2l-1.7,3.3H121.8z"></path> <path d="M129.5,35.5h5.3c0.8,0,1.3,0.2,1.6,0.4c0.4,0.4,0.6,1.4,0.6,2.7c0,1.4-0.2,2.3-0.6,2.7c-0.3,0.3-0.8,0.4-1.6,0.4h-5.3V35.5z M130.4,40.9h4.3c0.5,0,0.9-0.2,1-0.5c0.2-0.3,0.3-0.9,0.3-1.8c0-0.9-0.1-1.5-0.3-1.8s-0.5-0.5-1-0.5h-4.3V40.9z"></path> <path d="M143.3,35.5h6v0.9h-5v1.8h4.9v0.9h-4.9V41h5v0.9h-6V35.5z"></path> <path d="M157.2,35.5l3.3,5.2l3.3-5.2h1.7v6.3h-0.9v-5.4h-0.2l-3.5,5.4h-0.7l-3.5-5.4h-0.2v5.4h-0.9v-6.3H157.2z"></path> <path d="M178.2,35.5h1.2l-3.7,3.7v2.5h-0.9v-2.5l-3.7-3.7h1.2l2.9,3L178.2,35.5z"></path> <g> <path class="st3" d="M243.1-15.5h1.7v4.9h10v-4.9h1.7v11.6h-1.7V-9h-10v5.1h-1.7V-15.5z"></path> <path class="st3" d="M266.1-15.5h10.4c1,0,1.7,0.3,2.3,1c0.5,0.7,0.8,1.6,0.8,2.7c0,1-0.2,1.7-0.5,2.2c-0.2,0.3-0.6,0.6-1,0.8 c0.4,0.2,0.7,0.4,1,0.7c0.3,0.4,0.5,0.9,0.5,1.4v2.9h-1.7v-2.9c0-0.4-0.2-0.7-0.6-1c-0.4-0.3-0.8-0.4-1.3-0.4h-8.2v4.2h-1.7 L266.1-15.5L266.1-15.5z M267.9-9.6h8c0.6,0,1.1-0.1,1.4-0.3c0.4-0.3,0.7-0.9,0.7-1.8s-0.2-1.5-0.6-1.8c-0.3-0.2-0.8-0.3-1.4-0.3 h-8L267.9-9.6L267.9-9.6z"></path> <path class="st3" d="M312-15.5l6.1,11.6h-2l-1.4-2.6h-8.3L305-3.9h-2l6.1-11.6H312z M314-8l-3.2-6.1h-0.4L307.2-8H314z"></path> <path class="st3" d="M328.1-9.7c0,2.1,0.2,3.4,0.7,3.8s1.8,0.6,4.2,0.6c2.2,0,3.5-0.1,4-0.4c0.6-0.3,0.8-1,0.8-2.3h1.7 c0,1.8-0.4,3-1.1,3.5c-0.8,0.5-2.6,0.7-5.4,0.7c-2.9,0-4.7-0.3-5.4-1c-0.8-0.7-1.1-2.3-1.1-4.9s0.4-4.3,1.1-5s2.6-1,5.4-1 s4.6,0.2,5.4,0.7s1.1,1.6,1.1,3.5h-1.7c0-1.2-0.3-2-0.8-2.3s-1.9-0.4-4-0.4c-2.3,0-3.7,0.2-4.2,0.6 C328.3-13.1,328.1-11.8,328.1-9.7z"></path> <path class="st3" d="M356.9-15.5L363-3.9h-2l-1.4-2.6h-8.3l-1.4,2.6h-2l6.1-11.6H356.9z M359-8l-3.2-6.1h-0.4L352.2-8H359z"></path> <path class="st3" d="M371.4-15.5h9.8c1.4,0,2.4,0.3,2.9,0.8c0.8,0.8,1.2,2.5,1.2,5s-0.4,4.2-1.2,5c-0.5,0.5-1.5,0.8-2.9,0.8h-9.8 V-15.5L371.4-15.5z M373.1-5.4h8c0.9,0,1.6-0.3,1.9-0.9s0.5-1.7,0.5-3.4s-0.2-2.8-0.5-3.4c-0.3-0.6-1-0.9-1.9-0.9h-8V-5.4 L373.1-5.4z"></path> <path class="st3" d="M395-15.5h11.1v1.6h-9.4v3.4h9.1v1.6h-9.1v3.6h9.4v1.6H395V-15.5z"></path> <path class="st3" d="M419-15.5l6,9.6l6-9.6h3.1v11.6h-1.7v-10h-0.3l-6.5,10.1h-1.1L418-13.9h-0.3v10.1H416v-11.7 C416-15.5,419-15.5,419-15.5z"></path> <path class="st3" d="M456.1-15.5h2.3l-6.9,7v4.7h-1.7v-4.7l-6.9-7h2.3l5.4,5.5L456.1-15.5z"></path> </g> </svg> 